<svg version="1.1" xmlns="http://www.w3.org/2000/svg" viewBox="0 0 1017.0342348565473 954.592960674979" width="3051.102704569642" height="2863.778882024937" filter="invert(93%) hue-rotate(180deg)">
  <!-- svg-source:excalidraw -->
  
  <defs>
    <style class="style-fonts">
      @font-face {
        font-family: "Virgil";
        src: url("https://excalidraw.com/Virgil.woff2");
      }
      @font-face {
        font-family: "Cascadia";
        src: url("https://excalidraw.com/Cascadia.woff2");
      }
    </style>
  </defs>
  <g stroke-linecap="round" transform="translate(264.0953890013561 34.44629879833792) rotate(0 184.5 64.5)"><path d="M0 0 C0 0, 0 0, 0 0 M0 0 C0 0, 0 0, 0 0 M-0.26 6.4 C1.51 4.36, 3.28 2.33, 4.99 0.36 M-0.26 6.4 C1.75 4.09, 3.76 1.77, 4.99 0.36 M0.13 12.04 C3.86 7.76, 7.58 3.47, 10.63 -0.03 M0.13 12.04 C3.16 8.56, 6.18 5.08, 10.63 -0.03 M-0.13 18.44 C4.81 12.75, 9.76 7.07, 15.62 0.33 M-0.13 18.44 C4.03 13.65, 8.2 8.86, 15.62 0.33 M0.27 24.08 C6.54 16.86, 12.81 9.65, 21.26 -0.07 M0.27 24.08 C4.84 18.83, 9.4 13.57, 21.26 -0.07 M0 30.48 C6.43 23.09, 12.85 15.7, 26.25 0.29 M0 30.48 C6.32 23.22, 12.63 15.96, 26.25 0.29 M-0.26 36.88 C8.18 27.17, 16.62 17.46, 31.89 -0.1 M-0.26 36.88 C8.99 26.25, 18.23 15.61, 31.89 -0.1 M0.14 42.52 C13.5 27.15, 26.86 11.78, 36.88 0.26 M0.14 42.52 C9.31 31.97, 18.48 21.43, 36.88 0.26 M-0.12 48.92 C16.32 30, 32.77 11.08, 42.52 -0.14 M-0.12 48.92 C9.67 37.66, 19.45 26.4, 42.52 -0.14 M0.27 54.56 C15.24 37.35, 30.2 20.13, 47.51 0.22 M0.27 54.56 C10.52 42.77, 20.77 30.98, 47.51 0.22 M0.01 60.96 C11.76 47.45, 23.5 33.93, 53.15 -0.17 M0.01 60.96 C19.31 38.76, 38.6 16.56, 53.15 -0.17 M-0.25 67.36 C20.95 42.97, 42.15 18.58, 58.14 0.19 M-0.25 67.36 C14.69 50.17, 29.63 32.98, 58.14 0.19 M0.14 73 C21.37 48.58, 42.6 24.16, 63.78 -0.21 M0.14 73 C25.28 44.08, 50.42 15.16, 63.78 -0.21 M-0.12 79.4 C25.63 49.78, 51.38 20.16, 68.77 0.15 M-0.12 79.4 C18.27 58.24, 36.66 37.09, 68.77 0.15 M0.28 85.04 C22.58 59.39, 44.88 33.73, 74.41 -0.24 M0.28 85.04 C16.56 66.3, 32.85 47.57, 74.41 -0.24 M0.01 91.44 C18.48 70.2, 36.95 48.95, 79.4 0.12 M0.01 91.44 C26.86 60.56, 53.7 29.68, 79.4 0.12 M-0.25 97.84 C26.43 67.14, 53.11 36.45, 85.04 -0.28 M-0.25 97.84 C26.95 66.55, 54.14 35.27, 85.04 -0.28 M0.15 103.48 C21.35 79.09, 42.55 54.7, 90.03 0.08 M0.15 103.48 C31.17 67.8, 62.19 32.11, 90.03 0.08 M-0.11 109.88 C35.53 68.87, 71.17 27.87, 95.67 -0.31 M-0.11 109.88 C34.55 70, 69.22 30.12, 95.67 -0.31 M0.28 115.52 C29.64 81.75, 58.99 47.98, 100.66 0.05 M0.28 115.52 C35.51 75, 70.73 34.48, 100.66 0.05 M0.02 121.92 C31.24 86, 62.46 50.09, 106.3 -0.34 M0.02 121.92 C21.88 96.78, 43.73 71.63, 106.3 -0.34 M-0.24 128.32 C35.84 86.8, 71.93 45.29, 111.29 0.02 M-0.24 128.32 C22.75 101.86, 45.75 75.41, 111.29 0.02 M2.78 130.94 C37.42 91.09, 72.06 51.23, 116.27 0.38 M2.78 130.94 C36.19 92.5, 69.61 54.06, 116.27 0.38 M7.76 131.3 C37.78 96.77, 67.8 62.24, 121.92 -0.02 M7.76 131.3 C47.6 85.48, 87.43 39.65, 121.92 -0.02 M13.41 130.91 C41.4 98.7, 69.39 66.5, 126.91 0.34 M13.41 130.91 C42.93 96.95, 72.45 62.99, 126.91 0.34 M18.39 131.27 C47.73 97.52, 77.07 63.77, 132.55 -0.05 M18.39 131.27 C41.78 104.37, 65.16 77.47, 132.55 -0.05 M24.04 130.87 C66.09 82.5, 108.14 34.12, 137.54 0.31 M24.04 130.87 C60.58 88.83, 97.12 46.8, 137.54 0.31 M29.02 131.23 C59.21 96.51, 89.4 61.78, 143.18 -0.09 M29.02 131.23 C73.19 80.42, 117.36 29.61, 143.18 -0.09 M34.67 130.84 C73.47 86.2, 112.26 41.57, 148.17 0.27 M34.67 130.84 C67.23 93.38, 99.79 55.92, 148.17 0.27 M39.65 131.2 C68.94 97.5, 98.23 63.81, 153.81 -0.12 M39.65 131.2 C73.42 92.36, 107.18 53.52, 153.81 -0.12 M44.64 131.56 C71.83 100.27, 99.03 68.99, 158.8 0.24 M44.64 131.56 C84.5 85.7, 124.36 39.85, 158.8 0.24 M50.28 131.16 C75.08 102.64, 99.87 74.12, 164.44 -0.16 M50.28 131.16 C86.75 89.21, 123.22 47.25, 164.44 -0.16 M55.27 131.52 C95.19 85.61, 135.1 39.69, 169.43 0.2 M55.27 131.52 C88.46 93.35, 121.64 55.17, 169.43 0.2 M60.91 131.13 C100.02 86.14, 139.13 41.15, 175.07 -0.19 M60.91 131.13 C87.59 100.44, 114.26 69.76, 175.07 -0.19 M65.9 131.49 C109.13 81.76, 152.36 32.03, 180.06 0.17 M65.9 131.49 C97.96 94.61, 130.01 57.74, 180.06 0.17 M71.54 131.09 C99.12 99.37, 126.69 67.66, 185.7 -0.23 M71.54 131.09 C94.53 104.65, 117.52 78.21, 185.7 -0.23 M76.53 131.45 C103.97 99.89, 131.41 68.32, 190.69 0.13 M76.53 131.45 C108.07 95.17, 139.61 58.89, 190.69 0.13 M82.17 131.06 C120.46 87.02, 158.74 42.98, 196.33 -0.26 M82.17 131.06 C124.78 82.05, 167.38 33.05, 196.33 -0.26 M87.16 131.42 C117.1 96.98, 147.04 62.54, 201.32 0.1 M87.16 131.42 C112.44 102.33, 137.73 73.25, 201.32 0.1 M92.8 131.02 C122.23 97.17, 151.66 63.32, 206.96 -0.3 M92.8 131.02 C125.59 93.31, 158.38 55.59, 206.96 -0.3 M97.79 131.38 C141.67 80.91, 185.54 30.44, 211.95 0.06 M97.79 131.38 C126.13 98.79, 154.47 66.19, 211.95 0.06 M103.43 130.99 C132.56 97.48, 161.69 63.97, 217.59 -0.33 M103.43 130.99 C134.15 95.66, 164.86 60.32, 217.59 -0.33 M108.42 131.35 C149.43 84.18, 190.43 37.01, 222.58 0.03 M108.42 131.35 C139.92 95.12, 171.41 58.88, 222.58 0.03 M114.06 130.96 C158.16 80.23, 202.25 29.51, 228.22 -0.36 M114.06 130.96 C140.52 100.52, 166.98 70.08, 228.22 -0.36 M119.05 131.32 C159.22 85.11, 199.39 38.9, 233.21 0 M119.05 131.32 C143.17 103.57, 167.3 75.82, 233.21 0 M124.69 130.92 C161.28 88.83, 197.87 46.74, 238.19 0.36 M124.69 130.92 C156.01 94.89, 187.33 58.86, 238.19 0.36 M129.68 131.28 C168.48 86.65, 207.28 42.02, 243.84 -0.04 M129.68 131.28 C169.5 85.48, 209.31 39.67, 243.84 -0.04 M135.32 130.89 C174.74 85.54, 214.15 40.2, 248.82 0.32 M135.32 130.89 C168.2 93.06, 201.08 55.24, 248.82 0.32 M140.31 131.25 C176.07 90.11, 211.83 48.97, 254.47 -0.07 M140.31 131.25 C182.57 82.63, 224.83 34.02, 254.47 -0.07 M145.95 130.85 C186.5 84.21, 227.05 37.56, 259.45 0.29 M145.95 130.85 C185.52 85.34, 225.08 39.83, 259.45 0.29 M150.94 131.21 C182.28 95.16, 213.62 59.11, 265.1 -0.11 M150.94 131.21 C190.3 85.93, 229.66 40.65, 265.1 -0.11 M155.93 131.57 C185.74 97.28, 215.55 62.99, 270.08 0.25 M155.93 131.57 C191.96 90.12, 227.99 48.67, 270.08 0.25 M161.57 131.18 C188.83 99.82, 216.09 68.46, 275.73 -0.14 M161.57 131.18 C199.19 87.91, 236.8 44.63, 275.73 -0.14 M166.56 131.54 C209.95 81.62, 253.35 31.69, 280.71 0.22 M166.56 131.54 C194.13 99.82, 221.71 68.1, 280.71 0.22 M172.2 131.14 C198.86 100.47, 225.52 69.8, 286.36 -0.18 M172.2 131.14 C214.28 82.73, 256.37 34.32, 286.36 -0.18 M177.19 131.5 C205.51 98.92, 233.84 66.33, 291.34 0.18 M177.19 131.5 C218.78 83.66, 260.38 35.81, 291.34 0.18 M182.83 131.11 C216.95 91.87, 251.06 52.62, 296.99 -0.21 M182.83 131.11 C216.4 92.5, 249.96 53.89, 296.99 -0.21 M187.82 131.47 C211.95 103.71, 236.07 75.96, 301.97 0.15 M187.82 131.47 C223.17 90.81, 258.51 50.14, 301.97 0.15 M193.46 131.07 C226.25 93.36, 259.03 55.65, 307.62 -0.25 M193.46 131.07 C230.56 88.4, 267.66 45.72, 307.62 -0.25 M198.45 131.43 C224.55 101.41, 250.64 71.39, 312.6 0.11 M198.45 131.43 C231.61 93.29, 264.77 55.14, 312.6 0.11 M204.09 131.04 C234.19 96.42, 264.29 61.79, 318.25 -0.28 M204.09 131.04 C234.73 95.8, 265.36 60.55, 318.25 -0.28 M209.08 131.4 C240.04 95.79, 270.99 60.18, 323.23 0.08 M209.08 131.4 C244.18 91.02, 279.29 50.64, 323.23 0.08 M214.72 131 C249.63 90.85, 284.54 50.69, 328.88 -0.31 M214.72 131 C251.08 89.18, 287.44 47.35, 328.88 -0.31 M219.71 131.36 C256.57 88.97, 293.42 46.57, 333.86 0.05 M219.71 131.36 C259.52 85.57, 299.33 39.77, 333.86 0.05 M225.35 130.97 C260.01 91.1, 294.67 51.23, 339.51 -0.35 M225.35 130.97 C254.72 97.19, 284.09 63.4, 339.51 -0.35 M230.34 131.33 C273.71 81.44, 317.09 31.54, 344.49 0.01 M230.34 131.33 C274.84 80.14, 319.34 28.95, 344.49 0.01 M235.98 130.94 C276.8 83.98, 317.62 37.02, 349.48 0.37 M235.98 130.94 C264.8 97.78, 293.63 64.63, 349.48 0.37 M240.97 131.3 C269.65 98.31, 298.33 65.32, 355.12 -0.02 M240.97 131.3 C285.92 79.58, 330.88 27.87, 355.12 -0.02 M246.61 130.9 C290.76 80.12, 334.91 29.33, 360.11 0.34 M246.61 130.9 C276.73 96.25, 306.85 61.6, 360.11 0.34 M251.6 131.26 C292.46 84.25, 333.33 37.25, 365.75 -0.06 M251.6 131.26 C287.14 90.38, 322.67 49.5, 365.75 -0.06 M257.24 130.87 C293.25 89.45, 329.26 48.02, 370.08 1.06 M257.24 130.87 C283.87 100.24, 310.49 69.62, 370.08 1.06 M262.23 131.23 C298.16 89.89, 334.1 48.55, 369.82 7.45 M262.23 131.23 C292.39 96.53, 322.56 61.83, 369.82 7.45 M267.22 131.59 C297.09 97.22, 326.97 62.85, 370.22 13.1 M267.22 131.59 C297.85 96.35, 328.48 61.11, 370.22 13.1 M272.86 131.19 C294.76 106, 316.66 80.81, 369.96 19.5 M272.86 131.19 C294.86 105.88, 316.86 80.57, 369.96 19.5 M277.85 131.55 C301.38 104.48, 324.92 77.4, 370.35 25.14 M277.85 131.55 C312 92.27, 346.15 52.98, 370.35 25.14 M283.49 131.16 C308.73 102.12, 333.97 73.09, 370.09 31.54 M283.49 131.16 C306.27 104.95, 329.06 78.74, 370.09 31.54 M288.48 131.52 C319.16 96.22, 349.85 60.92, 369.83 37.93 M288.48 131.52 C317.6 98.01, 346.73 64.5, 369.83 37.93 M294.12 131.12 C309.57 113.35, 325.02 95.58, 370.22 43.58 M294.12 131.12 C316.22 105.7, 338.32 80.27, 370.22 43.58 M299.11 131.48 C315.83 112.25, 332.54 93.02, 369.96 49.97 M299.11 131.48 C324.5 102.27, 349.89 73.06, 369.96 49.97 M304.75 131.09 C320.76 112.68, 336.76 94.26, 370.36 55.62 M304.75 131.09 C330.78 101.15, 356.8 71.21, 370.36 55.62 M309.74 131.45 C323.06 116.12, 336.38 100.8, 370.09 62.02 M309.74 131.45 C324.94 113.95, 340.15 96.46, 370.09 62.02 M315.38 131.05 C332.3 111.6, 349.21 92.14, 369.83 68.41 M315.38 131.05 C329.4 114.93, 343.42 98.8, 369.83 68.41 M320.37 131.41 C337.02 112.26, 353.68 93.1, 370.23 74.06 M320.37 131.41 C335.73 113.74, 351.1 96.06, 370.23 74.06 M326.01 131.02 C339.72 115.25, 353.42 99.48, 369.97 80.45 M326.01 131.02 C340.77 114.04, 355.53 97.06, 369.97 80.45 M331 131.38 C346.38 113.68, 361.77 95.98, 370.36 86.1 M331 131.38 C346.11 114, 361.22 96.62, 370.36 86.1 M336.64 130.99 C348.98 116.79, 361.32 102.6, 370.1 92.5 M336.64 130.99 C346.09 120.12, 355.54 109.25, 370.1 92.5 M341.63 131.35 C347.8 124.24, 353.98 117.14, 369.84 98.89 M341.63 131.35 C350.75 120.85, 359.87 110.36, 369.84 98.89 M347.27 130.95 C352.22 125.26, 357.16 119.57, 370.23 104.54 M347.27 130.95 C354.97 122.1, 362.67 113.24, 370.23 104.54 M352.26 131.31 C356.83 126.05, 361.4 120.79, 369.97 110.93 M352.26 131.31 C358.61 124.01, 364.96 116.7, 369.97 110.93 M357.9 130.92 C362.86 125.21, 367.82 119.51, 370.37 116.58 M357.9 130.92 C361.89 126.33, 365.88 121.74, 370.37 116.58 M362.89 131.28 C365.49 128.28, 368.1 125.28, 370.1 122.97 M362.89 131.28 C365.11 128.72, 367.34 126.15, 370.1 122.97" stroke="#ced4da" stroke-width="0.5" fill="none"></path><path d="M0 0 C83.78 0, 167.57 0, 369 0 M0 0 C87.03 0, 174.06 0, 369 0 M369 0 C369 48.24, 369 96.49, 369 129 M369 0 C369 37.34, 369 74.69, 369 129 M369 129 C284.99 129, 200.97 129, 0 129 M369 129 C272.94 129, 176.88 129, 0 129 M0 129 C0 91.13, 0 53.27, 0 0 M0 129 C0 97.31, 0 65.61, 0 0" stroke="#000000" stroke-width="1" fill="none"></path></g><g transform="translate(280.5953890013561 86.44629879833792) rotate(0 168 12.5)"><text x="168" y="18" font-family="Virgil, Segoe UI Emoji" font-size="20px" fill="#000000" text-anchor="middle" style="white-space: pre;" direction="ltr">decimal Calculate(decimal amount)</text></g><g transform="translate(266.8494969996209 10) rotate(0 74.5 12.5)"><text x="0" y="18" font-family="Virgil, Segoe UI Emoji" font-size="20px" fill="#000000" text-anchor="start" style="white-space: pre;" direction="ltr">IFeeCalculator</text></g><g stroke-linecap="round" transform="translate(10 315.5915127385904) rotate(0 184.5 64.5)"><path d="M0 0 C0 0, 0 0, 0 0 M0 0 C0 0, 0 0, 0 0 M-0.26 6.4 C1.49 4.38, 3.25 2.36, 4.99 0.36 M-0.26 6.4 C1.21 4.7, 2.69 3.01, 4.99 0.36 M0.13 12.04 C3.82 7.8, 7.51 3.56, 10.63 -0.03 M0.13 12.04 C4.24 7.31, 8.35 2.59, 10.63 -0.03 M-0.13 18.44 C3.18 14.64, 6.48 10.83, 15.62 0.33 M-0.13 18.44 C5.09 12.43, 10.31 6.43, 15.62 0.33 M0.27 24.08 C5.1 18.52, 9.93 12.96, 21.26 -0.07 M0.27 24.08 C6.51 16.9, 12.75 9.72, 21.26 -0.07 M0 30.48 C9.68 19.34, 19.36 8.21, 26.25 0.29 M0 30.48 C5.52 24.13, 11.04 17.78, 26.25 0.29 M-0.26 36.88 C9.2 26, 18.66 15.11, 31.89 -0.1 M-0.26 36.88 C7.56 27.88, 15.38 18.89, 31.89 -0.1 M0.14 42.52 C9.75 31.47, 19.36 20.41, 36.88 0.26 M0.14 42.52 C12.79 27.96, 25.45 13.4, 36.88 0.26 M-0.12 48.92 C16.41 29.9, 32.94 10.88, 42.52 -0.14 M-0.12 48.92 C15.36 31.1, 30.85 13.29, 42.52 -0.14 M0.27 54.56 C15.68 36.84, 31.09 19.11, 47.51 0.22 M0.27 54.56 C17.95 34.23, 35.63 13.89, 47.51 0.22 M0.01 60.96 C18.2 40.03, 36.4 19.1, 53.15 -0.17 M0.01 60.96 C10.82 48.53, 21.62 36.1, 53.15 -0.17 M-0.25 67.36 C22.42 41.28, 45.09 15.2, 58.14 0.19 M-0.25 67.36 C20.3 43.71, 40.86 20.06, 58.14 0.19 M0.14 73 C24.17 45.36, 48.2 17.71, 63.78 -0.21 M0.14 73 C20.67 49.39, 41.2 25.77, 63.78 -0.21 M-0.12 79.4 C17.85 58.72, 35.83 38.05, 68.77 0.15 M-0.12 79.4 C23.51 52.22, 47.13 25.04, 68.77 0.15 M0.28 85.04 C22.54 59.43, 44.8 33.82, 74.41 -0.24 M0.28 85.04 C21.93 60.13, 43.58 35.22, 74.41 -0.24 M0.01 91.44 C27.38 59.96, 54.74 28.48, 79.4 0.12 M0.01 91.44 C17.84 70.93, 35.66 50.43, 79.4 0.12 M-0.25 97.84 C25.74 67.94, 51.73 38.04, 85.04 -0.28 M-0.25 97.84 C24.97 68.82, 50.2 39.81, 85.04 -0.28 M0.15 103.48 C20.62 79.93, 41.09 56.38, 90.03 0.08 M0.15 103.48 C25.93 73.82, 51.71 44.17, 90.03 0.08 M-0.11 109.88 C35.59 68.8, 71.3 27.73, 95.67 -0.31 M-0.11 109.88 C31.47 73.54, 63.06 37.21, 95.67 -0.31 M0.28 115.52 C28.95 82.54, 57.62 49.56, 100.66 0.05 M0.28 115.52 C23.6 88.7, 46.92 61.87, 100.66 0.05 M0.02 121.92 C29.11 88.45, 58.21 54.98, 106.3 -0.34 M0.02 121.92 C21.59 97.1, 43.17 72.28, 106.3 -0.34 M-0.24 128.32 C31.14 92.21, 62.53 56.11, 111.29 0.02 M-0.24 128.32 C41.7 80.06, 83.65 31.81, 111.29 0.02 M2.78 130.94 C44.15 83.35, 85.52 35.76, 116.27 0.38 M2.78 130.94 C40.99 86.98, 79.2 43.02, 116.27 0.38 M7.76 131.3 C49.51 83.28, 91.25 35.26, 121.92 -0.02 M7.76 131.3 C35.81 99.04, 63.85 66.78, 121.92 -0.02 M13.41 130.91 C57.6 80.07, 101.78 29.24, 126.91 0.34 M13.41 130.91 C54.79 83.3, 96.18 35.68, 126.91 0.34 M18.39 131.27 C49.96 94.95, 81.53 58.63, 132.55 -0.05 M18.39 131.27 C61.9 81.22, 105.4 31.18, 132.55 -0.05 M24.04 130.87 C55.83 94.3, 87.62 57.72, 137.54 0.31 M24.04 130.87 C61.85 87.37, 99.67 43.87, 137.54 0.31 M29.02 131.23 C67.79 86.64, 106.55 42.04, 143.18 -0.09 M29.02 131.23 C67.25 87.25, 105.48 43.27, 143.18 -0.09 M34.67 130.84 C75.09 84.33, 115.52 37.83, 148.17 0.27 M34.67 130.84 C68.83 91.53, 103 52.23, 148.17 0.27 M39.65 131.2 C70.23 96.02, 100.81 60.84, 153.81 -0.12 M39.65 131.2 C70.72 95.46, 101.78 59.72, 153.81 -0.12 M44.64 131.56 C81.67 88.96, 118.69 46.37, 158.8 0.24 M44.64 131.56 C83.4 86.97, 122.16 42.38, 158.8 0.24 M50.28 131.16 C91.61 83.62, 132.93 36.09, 164.44 -0.16 M50.28 131.16 C92.56 82.53, 134.84 33.9, 164.44 -0.16 M55.27 131.52 C87.12 94.89, 118.96 58.26, 169.43 0.2 M55.27 131.52 C93.22 87.86, 131.17 44.21, 169.43 0.2 M60.91 131.13 C96.31 90.41, 131.7 49.69, 175.07 -0.19 M60.91 131.13 C85.98 102.3, 111.04 73.47, 175.07 -0.19 M65.9 131.49 C100.36 91.85, 134.82 52.21, 180.06 0.17 M65.9 131.49 C108.83 82.1, 151.76 32.71, 180.06 0.17 M71.54 131.09 C115.79 80.19, 160.04 29.29, 185.7 -0.23 M71.54 131.09 C96.92 101.9, 122.3 72.71, 185.7 -0.23 M76.53 131.45 C106.48 97, 136.43 62.54, 190.69 0.13 M76.53 131.45 C119.82 81.66, 163.11 31.86, 190.69 0.13 M82.17 131.06 C111.6 97.2, 141.03 63.35, 196.33 -0.26 M82.17 131.06 C127.11 79.37, 172.04 27.68, 196.33 -0.26 M87.16 131.42 C111.97 102.88, 136.78 74.33, 201.32 0.1 M87.16 131.42 C117.2 96.86, 147.24 62.31, 201.32 0.1 M92.8 131.02 C135.17 82.28, 177.54 33.54, 206.96 -0.3 M92.8 131.02 C134.02 83.61, 175.24 36.19, 206.96 -0.3 M97.79 131.38 C121.89 103.66, 145.99 75.94, 211.95 0.06 M97.79 131.38 C139.07 83.9, 180.35 36.41, 211.95 0.06 M103.43 130.99 C145.19 82.95, 186.95 34.92, 217.59 -0.33 M103.43 130.99 C145.07 83.1, 186.7 35.21, 217.59 -0.33 M108.42 131.35 C139.87 95.17, 171.32 58.99, 222.58 0.03 M108.42 131.35 C133.65 102.33, 158.88 73.31, 222.58 0.03 M114.06 130.96 C144.58 95.86, 175.09 60.76, 228.22 -0.36 M114.06 130.96 C143.4 97.2, 172.74 63.45, 228.22 -0.36 M119.05 131.32 C145.29 101.13, 171.53 70.95, 233.21 0 M119.05 131.32 C141.88 105.05, 164.72 78.78, 233.21 0 M124.69 130.92 C157.46 93.23, 190.23 55.53, 238.19 0.36 M124.69 130.92 C159.09 91.35, 193.49 51.78, 238.19 0.36 M129.68 131.28 C161.76 94.38, 193.84 57.48, 243.84 -0.04 M129.68 131.28 C160.5 95.83, 191.32 60.37, 243.84 -0.04 M135.32 130.89 C161.5 100.77, 187.68 70.65, 248.82 0.32 M135.32 130.89 C178.5 81.22, 221.67 31.55, 248.82 0.32 M140.31 131.25 C165.8 101.92, 191.29 72.6, 254.47 -0.07 M140.31 131.25 C164.82 103.05, 189.33 74.86, 254.47 -0.07 M145.95 130.85 C177.87 94.13, 209.79 57.41, 259.45 0.29 M145.95 130.85 C188.98 81.36, 232 31.87, 259.45 0.29 M150.94 131.21 C178.17 99.89, 205.41 68.56, 265.1 -0.11 M150.94 131.21 C177.24 100.95, 203.55 70.7, 265.1 -0.11 M155.93 131.57 C180.59 103.21, 205.25 74.84, 270.08 0.25 M155.93 131.57 C178.94 105.11, 201.94 78.64, 270.08 0.25 M161.57 131.18 C195.37 92.29, 229.18 53.41, 275.73 -0.14 M161.57 131.18 C198.78 88.37, 235.99 45.57, 275.73 -0.14 M166.56 131.54 C212 79.26, 257.44 26.99, 280.71 0.22 M166.56 131.54 C207.99 83.88, 249.42 36.22, 280.71 0.22 M172.2 131.14 C212.48 84.81, 252.75 38.48, 286.36 -0.18 M172.2 131.14 C209.03 88.78, 245.85 46.42, 286.36 -0.18 M177.19 131.5 C220.34 81.86, 263.49 32.22, 291.34 0.18 M177.19 131.5 C221.8 80.19, 266.4 28.87, 291.34 0.18 M182.83 131.11 C223.13 84.75, 263.43 38.4, 296.99 -0.21 M182.83 131.11 C211.84 97.74, 240.85 64.37, 296.99 -0.21 M187.82 131.47 C221.37 92.87, 254.92 54.28, 301.97 0.15 M187.82 131.47 C213.51 101.91, 239.2 72.36, 301.97 0.15 M193.46 131.07 C219.55 101.07, 245.63 71.06, 307.62 -0.25 M193.46 131.07 C235.34 82.9, 277.21 34.73, 307.62 -0.25 M198.45 131.43 C229.42 95.8, 260.4 60.17, 312.6 0.11 M198.45 131.43 C223.38 102.76, 248.31 74.08, 312.6 0.11 M204.09 131.04 C238.18 91.82, 272.28 52.6, 318.25 -0.28 M204.09 131.04 C240.57 89.08, 277.04 47.12, 318.25 -0.28 M209.08 131.4 C234.58 102.06, 260.09 72.72, 323.23 0.08 M209.08 131.4 C247.41 87.31, 285.73 43.22, 323.23 0.08 M214.72 131 C245.58 95.51, 276.43 60.02, 328.88 -0.31 M214.72 131 C258.49 80.65, 302.27 30.3, 328.88 -0.31 M219.71 131.36 C248.33 98.44, 276.94 65.52, 333.86 0.05 M219.71 131.36 C260.2 84.79, 300.69 38.21, 333.86 0.05 M225.35 130.97 C252.49 99.75, 279.63 68.53, 339.51 -0.35 M225.35 130.97 C253.03 99.13, 280.7 67.3, 339.51 -0.35 M230.34 131.33 C257.88 99.65, 285.43 67.96, 344.49 0.01 M230.34 131.33 C260.62 96.49, 290.91 61.65, 344.49 0.01 M235.98 130.94 C268.09 94, 300.19 57.07, 349.48 0.37 M235.98 130.94 C280.56 79.66, 325.14 28.38, 349.48 0.37 M240.97 131.3 C271.88 95.74, 302.79 60.18, 355.12 -0.02 M240.97 131.3 C271.8 95.83, 302.62 60.37, 355.12 -0.02 M246.61 130.9 C277.82 95, 309.03 59.1, 360.11 0.34 M246.61 130.9 C285.56 86.09, 324.52 41.28, 360.11 0.34 M251.6 131.26 C274.68 104.71, 297.77 78.15, 365.75 -0.06 M251.6 131.26 C295.44 80.83, 339.27 30.41, 365.75 -0.06 M257.24 130.87 C287.81 95.7, 318.38 60.53, 370.08 1.06 M257.24 130.87 C281.51 102.95, 305.78 75.03, 370.08 1.06 M262.23 131.23 C293.03 95.8, 323.82 60.37, 369.82 7.45 M262.23 131.23 C287.48 102.18, 312.74 73.13, 369.82 7.45 M267.22 131.59 C299.66 94.26, 332.11 56.94, 370.22 13.1 M267.22 131.59 C302.46 91.05, 337.69 50.51, 370.22 13.1 M272.86 131.19 C307.9 90.88, 342.94 50.57, 369.96 19.5 M272.86 131.19 C298.32 101.91, 323.78 72.62, 369.96 19.5 M277.85 131.55 C299.97 106.11, 322.09 80.66, 370.35 25.14 M277.85 131.55 C302.89 102.75, 327.92 73.95, 370.35 25.14 M283.49 131.16 C305.29 106.08, 327.1 80.99, 370.09 31.54 M283.49 131.16 C311.12 99.38, 338.74 67.6, 370.09 31.54 M288.48 131.52 C309.84 106.95, 331.2 82.37, 369.83 37.93 M288.48 131.52 C317.72 97.87, 346.97 64.23, 369.83 37.93 M294.12 131.12 C322.43 98.56, 350.74 65.99, 370.22 43.58 M294.12 131.12 C314.68 107.47, 335.25 83.81, 370.22 43.58 M299.11 131.48 C326.9 99.52, 354.68 67.55, 369.96 49.97 M299.11 131.48 C326.03 100.52, 352.94 69.55, 369.96 49.97 M304.75 131.09 C325.88 106.78, 347.01 82.47, 370.36 55.62 M304.75 131.09 C330.55 101.41, 356.35 71.73, 370.36 55.62 M309.74 131.45 C323.16 116.01, 336.57 100.58, 370.09 62.02 M309.74 131.45 C328.79 109.53, 347.84 87.61, 370.09 62.02 M315.38 131.05 C331.18 112.88, 346.98 94.7, 369.83 68.41 M315.38 131.05 C335.98 107.36, 356.58 83.66, 369.83 68.41 M320.37 131.41 C337.06 112.21, 353.75 93.01, 370.23 74.06 M320.37 131.41 C338.47 110.59, 356.58 89.76, 370.23 74.06 M326.01 131.02 C337.08 118.28, 348.15 105.55, 369.97 80.45 M326.01 131.02 C340.42 114.44, 354.83 97.87, 369.97 80.45 M331 131.38 C342.76 117.84, 354.53 104.31, 370.36 86.1 M331 131.38 C344.02 116.39, 357.05 101.41, 370.36 86.1 M336.64 130.99 C349.03 116.74, 361.41 102.49, 370.1 92.5 M336.64 130.99 C348.58 117.25, 360.52 103.52, 370.1 92.5 M341.63 131.35 C349.29 122.53, 356.95 113.72, 369.84 98.89 M341.63 131.35 C348.41 123.54, 355.2 115.73, 369.84 98.89 M347.27 130.95 C356.36 120.5, 365.45 110.04, 370.23 104.54 M347.27 130.95 C356.29 120.57, 365.31 110.19, 370.23 104.54 M352.26 131.31 C359.29 123.22, 366.33 115.13, 369.97 110.93 M352.26 131.31 C358.03 124.68, 363.79 118.04, 369.97 110.93 M357.9 130.92 C361.23 127.09, 364.55 123.27, 370.37 116.58 M357.9 130.92 C362.59 125.52, 367.28 120.13, 370.37 116.58 M362.89 131.28 C364.38 129.56, 365.88 127.83, 370.1 122.97 M362.89 131.28 C364.57 129.35, 366.24 127.42, 370.1 122.97" stroke="#ced4da" stroke-width="0.5" fill="none"></path><path d="M0 0 C145.45 0, 290.9 0, 369 0 M0 0 C134.53 0, 269.07 0, 369 0 M369 0 C369 47.45, 369 94.89, 369 129 M369 0 C369 27.81, 369 55.61, 369 129 M369 129 C255.03 129, 141.05 129, 0 129 M369 129 C285 129, 200.99 129, 0 129 M0 129 C0 93.04, 0 57.08, 0 0 M0 129 C0 97.65, 0 66.3, 0 0" stroke="#000000" stroke-width="1" fill="none"></path></g><g transform="translate(26.5 367.5915127385904) rotate(0 168 12.5)"><text x="168" y="18" font-family="Virgil, Segoe UI Emoji" font-size="20px" fill="#000000" text-anchor="middle" style="white-space: pre;" direction="ltr">decimal Calculate(decimal amount)</text></g><g transform="translate(11.472333156458262 450.46400052738886) rotate(0 134.5 12.5)"><text x="0" y="18" font-family="Virgil, Segoe UI Emoji" font-size="20px" fill="#000000" text-anchor="start" style="white-space: pre;" direction="ltr">DefaultClientFeeCalculator</text></g><g stroke-linecap="round" transform="translate(473.45710300562496 313.04494796531185) rotate(0 184.5 64.5)"><path d="M0 0 C0 0, 0 0, 0 0 M0 0 C0 0, 0 0, 0 0 M-0.26 6.4 C1.45 4.43, 3.15 2.47, 4.99 0.36 M-0.26 6.4 C0.87 5.09, 2.01 3.79, 4.99 0.36 M0.13 12.04 C2.77 9.01, 5.41 5.97, 10.63 -0.03 M0.13 12.04 C3.61 8.04, 7.09 4.03, 10.63 -0.03 M-0.13 18.44 C4.25 13.4, 8.63 8.36, 15.62 0.33 M-0.13 18.44 C3.76 13.96, 7.66 9.48, 15.62 0.33 M0.27 24.08 C4.66 19.02, 9.06 13.96, 21.26 -0.07 M0.27 24.08 C6.31 17.13, 12.36 10.17, 21.26 -0.07 M0 30.48 C6.85 22.61, 13.69 14.73, 26.25 0.29 M0 30.48 C8.66 20.53, 17.31 10.58, 26.25 0.29 M-0.26 36.88 C10.48 24.53, 21.22 12.18, 31.89 -0.1 M-0.26 36.88 C10.15 24.91, 20.56 12.93, 31.89 -0.1 M0.14 42.52 C10.9 30.14, 21.65 17.77, 36.88 0.26 M0.14 42.52 C8.31 33.12, 16.48 23.72, 36.88 0.26 M-0.12 48.92 C10.02 37.25, 20.16 25.59, 42.52 -0.14 M-0.12 48.92 C12.83 34.01, 25.79 19.11, 42.52 -0.14 M0.27 54.56 C18.27 33.86, 36.27 13.15, 47.51 0.22 M0.27 54.56 C14.29 38.44, 28.3 22.31, 47.51 0.22 M0.01 60.96 C17.09 41.31, 34.18 21.65, 53.15 -0.17 M0.01 60.96 C16.26 42.27, 32.51 23.57, 53.15 -0.17 M-0.25 67.36 C18.42 45.88, 37.09 24.4, 58.14 0.19 M-0.25 67.36 C19.39 44.76, 39.03 22.17, 58.14 0.19 M0.14 73 C23.89 45.68, 47.64 18.36, 63.78 -0.21 M0.14 73 C14.13 56.92, 28.11 40.83, 63.78 -0.21 M-0.12 79.4 C19.92 56.35, 39.95 33.3, 68.77 0.15 M-0.12 79.4 C23.15 52.64, 46.41 25.87, 68.77 0.15 M0.28 85.04 C27.59 53.62, 54.91 22.19, 74.41 -0.24 M0.28 85.04 C26.08 55.35, 51.89 25.66, 74.41 -0.24 M0.01 91.44 C20.94 67.37, 41.86 43.3, 79.4 0.12 M0.01 91.44 C24.58 63.18, 49.15 34.92, 79.4 0.12 M-0.25 97.84 C22.81 71.31, 45.88 44.78, 85.04 -0.28 M-0.25 97.84 C17.33 77.62, 34.9 57.4, 85.04 -0.28 M0.15 103.48 C35.64 62.65, 71.13 21.83, 90.03 0.08 M0.15 103.48 C24.68 75.26, 49.21 47.03, 90.03 0.08 M-0.11 109.88 C21.88 84.58, 43.87 59.28, 95.67 -0.31 M-0.11 109.88 C30.64 74.5, 61.39 39.13, 95.67 -0.31 M0.28 115.52 C23.26 89.08, 46.25 62.64, 100.66 0.05 M0.28 115.52 C26.58 85.27, 52.87 55.02, 100.66 0.05 M0.02 121.92 C40.84 74.96, 81.66 28, 106.3 -0.34 M0.02 121.92 C24.8 93.41, 49.57 64.91, 106.3 -0.34 M-0.24 128.32 C32.97 90.11, 66.18 51.91, 111.29 0.02 M-0.24 128.32 C35.76 86.9, 71.75 45.49, 111.29 0.02 M2.78 130.94 C32.23 97.05, 61.69 63.17, 116.27 0.38 M2.78 130.94 C36.24 92.44, 69.71 53.94, 116.27 0.38 M7.76 131.3 C44.36 89.2, 80.96 47.1, 121.92 -0.02 M7.76 131.3 C43.63 90.04, 79.49 48.79, 121.92 -0.02 M13.41 130.91 C55.28 82.73, 97.16 34.56, 126.91 0.34 M13.41 130.91 C44.19 95.49, 74.98 60.07, 126.91 0.34 M18.39 131.27 C41.72 104.44, 65.04 77.61, 132.55 -0.05 M18.39 131.27 C53.49 90.89, 88.59 50.52, 132.55 -0.05 M24.04 130.87 C48.21 103.06, 72.39 75.25, 137.54 0.31 M24.04 130.87 C62.61 86.5, 101.19 42.12, 137.54 0.31 M29.02 131.23 C56.79 99.29, 84.55 67.36, 143.18 -0.09 M29.02 131.23 C73.13 80.49, 117.24 29.75, 143.18 -0.09 M34.67 130.84 C66.41 94.32, 98.16 57.79, 148.17 0.27 M34.67 130.84 C67.66 92.88, 100.66 54.92, 148.17 0.27 M39.65 131.2 C76.08 89.29, 112.51 47.38, 153.81 -0.12 M39.65 131.2 C67.89 98.72, 96.12 66.24, 153.81 -0.12 M44.64 131.56 C72.57 99.42, 100.51 67.29, 158.8 0.24 M44.64 131.56 C81.9 88.69, 119.16 45.83, 158.8 0.24 M50.28 131.16 C84.69 91.58, 119.1 52, 164.44 -0.16 M50.28 131.16 C95.83 78.77, 141.38 26.37, 164.44 -0.16 M55.27 131.52 C97.62 82.8, 139.98 34.08, 169.43 0.2 M55.27 131.52 C85.17 97.13, 115.06 62.74, 169.43 0.2 M60.91 131.13 C89.1 98.7, 117.29 66.28, 175.07 -0.19 M60.91 131.13 C102.32 83.5, 143.72 35.87, 175.07 -0.19 M65.9 131.49 C101.21 90.87, 136.51 50.26, 180.06 0.17 M65.9 131.49 C102.97 88.84, 140.04 46.2, 180.06 0.17 M71.54 131.09 C117.2 78.57, 162.86 26.05, 185.7 -0.23 M71.54 131.09 C102.62 95.35, 133.69 59.6, 185.7 -0.23 M76.53 131.45 C110.5 92.38, 144.47 53.3, 190.69 0.13 M76.53 131.45 C117.06 84.83, 157.59 38.21, 190.69 0.13 M82.17 131.06 C126.97 79.53, 171.76 28.01, 196.33 -0.26 M82.17 131.06 C113.44 95.09, 144.7 59.13, 196.33 -0.26 M87.16 131.42 C128.42 83.95, 169.68 36.49, 201.32 0.1 M87.16 131.42 C110.59 104.47, 134.02 77.51, 201.32 0.1 M92.8 131.02 C120.6 99.05, 148.4 67.07, 206.96 -0.3 M92.8 131.02 C130.07 88.16, 167.33 45.29, 206.96 -0.3 M97.79 131.38 C133.64 90.15, 169.49 48.91, 211.95 0.06 M97.79 131.38 C136.66 86.67, 175.52 41.97, 211.95 0.06 M103.43 130.99 C144.55 83.69, 185.67 36.39, 217.59 -0.33 M103.43 130.99 C126.4 104.57, 149.37 78.15, 217.59 -0.33 M108.42 131.35 C149.05 84.61, 189.67 37.88, 222.58 0.03 M108.42 131.35 C135.61 100.07, 162.81 68.79, 222.58 0.03 M114.06 130.96 C152.51 86.73, 190.95 42.51, 228.22 -0.36 M114.06 130.96 C146.25 93.93, 178.43 56.91, 228.22 -0.36 M119.05 131.32 C150.46 95.19, 181.86 59.06, 233.21 0 M119.05 131.32 C163.4 80.3, 207.75 29.28, 233.21 0 M124.69 130.92 C164.99 84.57, 205.29 38.21, 238.19 0.36 M124.69 130.92 C166.11 83.27, 207.53 35.63, 238.19 0.36 M129.68 131.28 C157.91 98.81, 186.14 66.33, 243.84 -0.04 M129.68 131.28 C163.23 92.68, 196.79 54.09, 243.84 -0.04 M135.32 130.89 C178.95 80.7, 222.58 30.51, 248.82 0.32 M135.32 130.89 C164.72 97.07, 194.12 63.25, 248.82 0.32 M140.31 131.25 C167.2 100.32, 194.08 69.39, 254.47 -0.07 M140.31 131.25 C171.07 95.86, 201.84 60.47, 254.47 -0.07 M145.95 130.85 C189.27 81.03, 232.58 31.2, 259.45 0.29 M145.95 130.85 C189.7 80.53, 233.45 30.21, 259.45 0.29 M150.94 131.21 C195.5 79.95, 240.06 28.69, 265.1 -0.11 M150.94 131.21 C178.65 99.34, 206.36 67.47, 265.1 -0.11 M155.93 131.57 C189.16 93.35, 222.38 55.13, 270.08 0.25 M155.93 131.57 C199.08 81.93, 242.23 32.3, 270.08 0.25 M161.57 131.18 C190.1 98.36, 218.62 65.55, 275.73 -0.14 M161.57 131.18 C201.95 84.73, 242.32 38.29, 275.73 -0.14 M166.56 131.54 C194.48 99.42, 222.4 67.3, 280.71 0.22 M166.56 131.54 C198.86 94.38, 231.17 57.21, 280.71 0.22 M172.2 131.14 C210.98 86.53, 249.76 41.92, 286.36 -0.18 M172.2 131.14 C212.72 84.54, 253.23 37.93, 286.36 -0.18 M177.19 131.5 C218.46 84.03, 259.73 36.55, 291.34 0.18 M177.19 131.5 C218.19 84.33, 259.2 37.16, 291.34 0.18 M182.83 131.11 C225.41 82.13, 267.98 33.16, 296.99 -0.21 M182.83 131.11 C206.97 103.34, 231.1 75.58, 296.99 -0.21 M187.82 131.47 C227.62 85.68, 267.43 39.89, 301.97 0.15 M187.82 131.47 C219.55 94.97, 251.27 58.48, 301.97 0.15 M193.46 131.07 C222.02 98.23, 250.57 65.38, 307.62 -0.25 M193.46 131.07 C227.8 91.57, 262.14 52.07, 307.62 -0.25 M198.45 131.43 C232.74 91.98, 267.04 52.53, 312.6 0.11 M198.45 131.43 C235.31 89.03, 272.18 46.62, 312.6 0.11 M204.09 131.04 C233.7 96.98, 263.31 62.92, 318.25 -0.28 M204.09 131.04 C228.41 103.06, 252.73 75.09, 318.25 -0.28 M209.08 131.4 C243.16 92.19, 277.24 52.99, 323.23 0.08 M209.08 131.4 C253.66 80.11, 298.24 28.83, 323.23 0.08 M214.72 131 C246.26 94.73, 277.79 58.45, 328.88 -0.31 M214.72 131 C254.76 84.95, 294.79 38.9, 328.88 -0.31 M219.71 131.36 C243.96 103.47, 268.21 75.57, 333.86 0.05 M219.71 131.36 C264.18 80.21, 308.64 29.06, 333.86 0.05 M225.35 130.97 C266.89 83.19, 308.42 35.41, 339.51 -0.35 M225.35 130.97 C262.89 87.79, 300.43 44.61, 339.51 -0.35 M230.34 131.33 C264.46 92.08, 298.58 52.82, 344.49 0.01 M230.34 131.33 C257.87 99.66, 285.4 67.99, 344.49 0.01 M235.98 130.94 C278.29 82.26, 320.6 33.59, 349.48 0.37 M235.98 130.94 C278.54 81.98, 321.09 33.03, 349.48 0.37 M240.97 131.3 C264.06 104.73, 287.16 78.16, 355.12 -0.02 M240.97 131.3 C272.85 94.62, 304.73 57.95, 355.12 -0.02 M246.61 130.9 C285.33 86.37, 324.04 41.83, 360.11 0.34 M246.61 130.9 C283.96 87.93, 321.32 44.97, 360.11 0.34 M251.6 131.26 C292.06 84.72, 332.52 38.17, 365.75 -0.06 M251.6 131.26 C280.15 98.42, 308.7 65.57, 365.75 -0.06 M257.24 130.87 C290.46 92.65, 323.68 54.44, 370.08 1.06 M257.24 130.87 C284.76 99.22, 312.27 67.57, 370.08 1.06 M262.23 131.23 C302.54 84.85, 342.85 38.48, 369.82 7.45 M262.23 131.23 C295.85 92.55, 329.47 53.87, 369.82 7.45 M267.22 131.59 C292.53 102.47, 317.84 73.35, 370.22 13.1 M267.22 131.59 C306.79 86.07, 346.35 40.55, 370.22 13.1 M272.86 131.19 C299.06 101.06, 325.25 70.92, 369.96 19.5 M272.86 131.19 C295.94 104.65, 319.01 78.1, 369.96 19.5 M277.85 131.55 C314.46 89.44, 351.06 47.33, 370.35 25.14 M277.85 131.55 C298.91 107.33, 319.96 83.1, 370.35 25.14 M283.49 131.16 C303.77 107.83, 324.05 84.49, 370.09 31.54 M283.49 131.16 C301.63 110.29, 319.77 89.42, 370.09 31.54 M288.48 131.52 C315.53 100.4, 342.58 69.28, 369.83 37.93 M288.48 131.52 C309.98 106.78, 331.48 82.04, 369.83 37.93 M294.12 131.12 C313.12 109.26, 332.13 87.4, 370.22 43.58 M294.12 131.12 C311.18 111.5, 328.24 91.87, 370.22 43.58 M299.11 131.48 C315.52 112.61, 331.93 93.73, 369.96 49.97 M299.11 131.48 C327.22 99.15, 355.33 66.81, 369.96 49.97 M304.75 131.09 C323.49 109.53, 342.23 87.97, 370.36 55.62 M304.75 131.09 C323.81 109.16, 342.88 87.23, 370.36 55.62 M309.74 131.45 C325.19 113.67, 340.65 95.89, 370.09 62.02 M309.74 131.45 C330.25 107.85, 350.77 84.24, 370.09 62.02 M315.38 131.05 C331.65 112.33, 347.93 93.62, 369.83 68.41 M315.38 131.05 C327.9 116.65, 340.42 102.25, 369.83 68.41 M320.37 131.41 C338.15 110.96, 355.93 90.51, 370.23 74.06 M320.37 131.41 C331.41 118.71, 342.45 106.01, 370.23 74.06 M326.01 131.02 C336.28 119.21, 346.55 107.39, 369.97 80.45 M326.01 131.02 C338.14 117.06, 350.28 103.1, 369.97 80.45 M331 131.38 C341.67 119.1, 352.34 106.82, 370.36 86.1 M331 131.38 C346.01 114.12, 361.01 96.85, 370.36 86.1 M336.64 130.99 C344.06 122.45, 351.49 113.9, 370.1 92.5 M336.64 130.99 C345.85 120.39, 355.06 109.8, 370.1 92.5 M341.63 131.35 C350.81 120.79, 359.99 110.23, 369.84 98.89 M341.63 131.35 C352.12 119.27, 362.62 107.2, 369.84 98.89 M347.27 130.95 C356.06 120.84, 364.86 110.72, 370.23 104.54 M347.27 130.95 C353.84 123.39, 360.42 115.83, 370.23 104.54 M352.26 131.31 C356.37 126.58, 360.49 121.84, 369.97 110.93 M352.26 131.31 C358.61 124, 364.96 116.7, 369.97 110.93 M357.9 130.92 C360.69 127.71, 363.47 124.51, 370.37 116.58 M357.9 130.92 C362.64 125.46, 367.38 120.01, 370.37 116.58 M362.89 131.28 C365 128.85, 367.11 126.42, 370.1 122.97 M362.89 131.28 C365.19 128.63, 367.49 125.98, 370.1 122.97" stroke="#ced4da" stroke-width="0.5" fill="none"></path><path d="M0 0 C94.29 0, 188.58 0, 369 0 M0 0 C101.64 0, 203.29 0, 369 0 M369 0 C369 47.75, 369 95.5, 369 129 M369 0 C369 43.36, 369 86.72, 369 129 M369 129 C251.44 129, 133.88 129, 0 129 M369 129 C273.39 129, 177.77 129, 0 129 M0 129 C0 81.16, 0 33.32, 0 0 M0 129 C0 91.53, 0 54.06, 0 0" stroke="#000000" stroke-width="1" fill="none"></path></g><g transform="translate(489.95710300562496 365.04494796531185) rotate(0 168 12.5)"><text x="168" y="18" font-family="Virgil, Segoe UI Emoji" font-size="20px" fill="#000000" text-anchor="middle" style="white-space: pre;" direction="ltr">decimal Calculate(decimal amount)</text></g><g transform="translate(474.9294361620832 447.91743575411033) rotate(0 133 12.5)"><text x="0" y="18" font-family="Virgil, Segoe UI Emoji" font-size="20px" fill="#000000" text-anchor="start" style="white-space: pre;" direction="ltr">PremiumClientFeeCalculator</text></g><g stroke-linecap="round"><g transform="translate(190.13113418143894 308.19469919892117) rotate(0 95.23368590266455 -69.17942739948853)"><path d="M0 0 C31.74 -23.06, 158.72 -115.3, 190.47 -138.36 M0 0 C31.74 -23.06, 158.72 -115.3, 190.47 -138.36" stroke="#000000" stroke-width="1" fill="none"></path></g><g transform="translate(190.13113418143894 308.19469919892117) rotate(0 95.23368590266455 -69.17942739948853)"><path d="M173.69 -113.49 C179.13 -121.56, 184.58 -129.63, 190.47 -138.36 M173.69 -113.49 C177.06 -118.49, 180.44 -123.49, 190.47 -138.36" stroke="#000000" stroke-width="1" fill="none"></path></g><g transform="translate(190.13113418143894 308.19469919892117) rotate(0 95.23368590266455 -69.17942739948853)"><path d="M161.63 -130.09 C170.99 -132.77, 180.34 -135.46, 190.47 -138.36 M161.63 -130.09 C167.43 -131.75, 173.23 -133.42, 190.47 -138.36" stroke="#000000" stroke-width="1" fill="none"></path></g></g><g stroke-linecap="round"><g transform="translate(633.8170101516216 310.16834114283733) rotate(0 -76.27895490869287 -69.86522549193171)"><path d="M0 0 C-25.43 -23.29, -127.13 -116.44, -152.56 -139.73 M0 0 C-25.43 -23.29, -127.13 -116.44, -152.56 -139.73" stroke="#000000" stroke-width="1" fill="none"></path></g><g transform="translate(633.8170101516216 310.16834114283733) rotate(0 -76.27895490869287 -69.86522549193171)"><path d="M-124.84 -128.26 C-132.47 -131.42, -140.11 -134.58, -152.56 -139.73 M-124.84 -128.26 C-134.05 -132.07, -143.26 -135.88, -152.56 -139.73" stroke="#000000" stroke-width="1" fill="none"></path></g><g transform="translate(633.8170101516216 310.16834114283733) rotate(0 -76.27895490869287 -69.86522549193171)"><path d="M-138.7 -113.12 C-142.52 -120.45, -146.33 -127.78, -152.56 -139.73 M-138.7 -113.12 C-143.31 -121.97, -147.91 -130.81, -152.56 -139.73" stroke="#000000" stroke-width="1" fill="none"></path></g></g><g transform="translate(268.0278043675735 266.711295808542) rotate(0 159 17)"><text x="0" y="24" font-family="Virgil, Segoe UI Emoji" font-size="26.704196342369503px" fill="#000000" text-anchor="start" style="white-space: pre;" direction="ltr">Implementam o contrato</text></g><g stroke-linecap="round" transform="translate(84.03413731148794 643.9815323745729) rotate(0 269.5 134.94418529949542)"><path d="M0 0 C204.84 0, 409.68 0, 539 0 M0 0 C113.07 0, 226.14 0, 539 0 M539 0 C539 73.02, 539 146.03, 539 269.89 M539 0 C539 102.16, 539 204.31, 539 269.89 M539 269.89 C413.59 269.89, 288.17 269.89, 0 269.89 M539 269.89 C413.95 269.89, 288.9 269.89, 0 269.89 M0 269.89 C0 171.85, 0 73.81, 0 0 M0 269.89 C0 198.73, 0 127.57, 0 0" stroke="#d9480f" stroke-width="1" fill="none"></path></g><g transform="translate(86.26235224074753 919.592960674979) rotate(0 106.5 12.5)"><text x="0" y="18" font-family="Virgil, Segoe UI Emoji" font-size="20px" fill="#d9480f" text-anchor="start" style="white-space: pre;" direction="ltr">FeeCalculatorFactory</text></g><g stroke-linecap="round" transform="translate(868.2990007197077 700.8276209870063) rotate(0 69.3676170684198 64.88705290464998)"><path d="M0 0 C0 0, 0 0, 0 0 M0 0 C0 0, 0 0, 0 0 M-0.26 6.4 C1.75 4.08, 3.77 1.76, 4.99 0.36 M-0.26 6.4 C1.16 4.76, 2.58 3.13, 4.99 0.36 M0.13 12.04 C2.39 9.44, 4.65 6.85, 10.63 -0.03 M0.13 12.04 C3.14 8.58, 6.14 5.13, 10.63 -0.03 M-0.13 18.44 C3.57 14.19, 7.26 9.94, 15.62 0.33 M-0.13 18.44 C4.83 12.73, 9.79 7.03, 15.62 0.33 M0.27 24.08 C7.45 15.82, 14.63 7.56, 21.26 -0.07 M0.27 24.08 C7.84 15.37, 15.42 6.65, 21.26 -0.07 M0 30.48 C6.89 22.56, 13.77 14.65, 26.25 0.29 M0 30.48 C6.28 23.26, 12.56 16.04, 26.25 0.29 M-0.26 36.88 C8.44 26.87, 17.15 16.86, 31.89 -0.1 M-0.26 36.88 C7.84 27.57, 15.93 18.26, 31.89 -0.1 M0.14 42.52 C11.86 29.04, 23.58 15.55, 36.88 0.26 M0.14 42.52 C9.78 31.42, 19.43 20.33, 36.88 0.26 M-0.12 48.92 C15.21 31.28, 30.54 13.65, 42.52 -0.14 M-0.12 48.92 C15.74 30.67, 31.6 12.42, 42.52 -0.14 M0.27 54.56 C13.03 39.88, 25.8 25.2, 47.51 0.22 M0.27 54.56 C18.8 33.25, 37.32 11.94, 47.51 0.22 M0.01 60.96 C20.2 37.73, 40.39 14.51, 53.15 -0.17 M0.01 60.96 C17.13 41.27, 34.24 21.58, 53.15 -0.17 M-0.25 67.36 C22.71 40.94, 45.67 14.52, 58.14 0.19 M-0.25 67.36 C12.73 52.42, 25.71 37.49, 58.14 0.19 M0.14 73 C20.23 49.89, 40.32 26.78, 63.78 -0.21 M0.14 73 C18.61 51.76, 37.08 30.51, 63.78 -0.21 M-0.12 79.4 C25.94 49.42, 52 19.44, 68.77 0.15 M-0.12 79.4 C22.94 52.87, 46.01 26.34, 68.77 0.15 M0.28 85.04 C27.19 54.08, 54.11 23.11, 74.41 -0.24 M0.28 85.04 C18.95 63.56, 37.62 42.08, 74.41 -0.24 M0.01 91.44 C26.04 61.5, 52.06 31.57, 79.4 0.12 M0.01 91.44 C23.75 64.14, 47.48 36.84, 79.4 0.12 M-0.25 97.84 C27.98 65.37, 56.2 32.9, 85.04 -0.28 M-0.25 97.84 C31.33 61.51, 62.9 25.19, 85.04 -0.28 M0.15 103.48 C32.22 66.59, 64.29 29.69, 90.03 0.08 M0.15 103.48 C24.56 75.4, 48.97 47.31, 90.03 0.08 M-0.11 109.88 C22.92 83.37, 45.96 56.87, 95.67 -0.31 M-0.11 109.88 C37.8 66.26, 75.71 22.65, 95.67 -0.31 M0.28 115.52 C39.72 70.15, 79.16 24.78, 100.66 0.05 M0.28 115.52 C40.14 69.66, 80.01 23.8, 100.66 0.05 M0.02 121.92 C34.63 82.11, 69.23 42.3, 106.3 -0.34 M0.02 121.92 C28.37 89.31, 56.71 56.7, 106.3 -0.34 M-0.24 128.32 C41.7 80.06, 83.65 31.81, 111.29 0.02 M-0.24 128.32 C22.88 101.71, 46.01 75.11, 111.29 0.02 M2.12 131.69 C28.66 101.16, 55.21 70.63, 116.27 0.38 M2.12 131.69 C37.34 91.17, 72.57 50.65, 116.27 0.38 M7.76 131.3 C37.32 97.3, 66.87 63.3, 121.92 -0.02 M7.76 131.3 C33.06 102.2, 58.36 73.1, 121.92 -0.02 M12.75 131.66 C37.87 102.77, 62.98 73.88, 126.91 0.34 M12.75 131.66 C39.51 100.88, 66.27 70.09, 126.91 0.34 M17.74 132.02 C41.43 104.76, 65.13 77.5, 132.55 -0.05 M17.74 132.02 C57.54 86.23, 97.35 40.44, 132.55 -0.05 M23.38 131.63 C64.41 84.43, 105.43 37.24, 137.54 0.31 M23.38 131.63 C62.75 86.34, 102.11 41.05, 137.54 0.31 M28.37 131.99 C73.07 80.57, 117.76 29.15, 141.21 2.18 M28.37 131.99 C59.62 96.03, 90.88 60.07, 141.21 2.18 M34.01 131.59 C69.77 90.45, 105.54 49.31, 140.95 8.57 M34.01 131.59 C69.08 91.24, 104.16 50.9, 140.95 8.57 M39 131.95 C61.32 106.28, 83.63 80.6, 141.34 14.22 M39 131.95 C69.12 97.3, 99.24 62.65, 141.34 14.22 M44.64 131.56 C67.93 104.77, 91.21 77.98, 141.08 20.61 M44.64 131.56 C69.65 102.78, 94.67 74.01, 141.08 20.61 M49.63 131.92 C74.87 102.88, 100.11 73.84, 141.48 26.26 M49.63 131.92 C74.25 103.6, 98.86 75.28, 141.48 26.26 M55.27 131.52 C88.72 93.04, 122.17 54.56, 141.21 32.66 M55.27 131.52 C72.64 111.54, 90.01 91.56, 141.21 32.66 M60.26 131.88 C91.04 96.48, 121.81 61.07, 140.95 39.05 M60.26 131.88 C80.83 108.22, 101.4 84.55, 140.95 39.05 M65.9 131.49 C88.46 105.54, 111.02 79.59, 141.35 44.7 M65.9 131.49 C81.5 113.54, 97.1 95.6, 141.35 44.7 M70.89 131.85 C96.54 102.34, 122.18 72.84, 141.09 51.09 M70.89 131.85 C91.9 107.67, 112.92 83.49, 141.09 51.09 M76.53 131.45 C96.32 108.69, 116.1 85.93, 141.48 56.74 M76.53 131.45 C96.76 108.18, 116.99 84.91, 141.48 56.74 M81.52 131.81 C97.44 113.49, 113.37 95.18, 141.22 63.13 M81.52 131.81 C95.44 115.8, 109.36 99.78, 141.22 63.13 M87.16 131.42 C106.12 109.61, 125.07 87.8, 140.96 69.53 M87.16 131.42 C105.55 110.27, 123.93 89.12, 140.96 69.53 M92.15 131.78 C108.78 112.64, 125.42 93.51, 141.35 75.18 M92.15 131.78 C105.72 116.17, 119.28 100.56, 141.35 75.18 M97.79 131.38 C106.5 121.37, 115.2 111.36, 141.09 81.57 M97.79 131.38 C111.25 115.91, 124.7 100.43, 141.09 81.57 M102.78 131.74 C112.24 120.86, 121.7 109.98, 141.49 87.22 M102.78 131.74 C111.83 121.33, 120.88 110.92, 141.49 87.22 M108.42 131.35 C115.7 122.98, 122.98 114.6, 141.22 93.61 M108.42 131.35 C115.6 123.09, 122.79 114.82, 141.22 93.61 M113.41 131.71 C120.66 123.37, 127.91 115.02, 140.96 100.01 M113.41 131.71 C121.72 122.14, 130.04 112.58, 140.96 100.01 M119.05 131.32 C127.95 121.08, 136.84 110.85, 141.36 105.66 M119.05 131.32 C124.73 124.78, 130.41 118.25, 141.36 105.66 M124.04 131.68 C128.89 126.09, 133.75 120.51, 141.1 112.05 M124.04 131.68 C128.5 126.54, 132.96 121.41, 141.1 112.05 M129.68 131.28 C133.55 126.83, 137.42 122.37, 141.49 117.7 M129.68 131.28 C134.33 125.94, 138.97 120.6, 141.49 117.7 M134.67 131.64 C136.05 130.05, 137.44 128.45, 141.23 124.09 M134.67 131.64 C136.52 129.51, 138.37 127.38, 141.23 124.09" stroke="#228be6" stroke-width="0.5" fill="none"></path><path d="M0 0 C33.63 0, 67.27 0, 138.74 0 M0 0 C33.47 0, 66.95 0, 138.74 0 M138.74 0 C138.74 34.43, 138.74 68.86, 138.74 129.77 M138.74 0 C138.74 36.71, 138.74 73.42, 138.74 129.77 M138.74 129.77 C84.25 129.77, 29.76 129.77, 0 129.77 M138.74 129.77 C101.17 129.77, 63.61 129.77, 0 129.77 M0 129.77 C0 94.73, 0 59.68, 0 0 M0 129.77 C0 94.09, 0 58.41, 0 0" stroke="#000000" stroke-width="1" fill="none"></path></g><g transform="translate(883.5731651804908 838.8425881467274) rotate(0 58 16.5)"><text x="0" y="23" font-family="Virgil, Segoe UI Emoji" font-size="26.02694595342864px" fill="#000000" text-anchor="start" style="white-space: pre;" direction="ltr">Consumer</text></g><g stroke-linecap="round"><g transform="translate(861.4734901745805 727.568993034843) rotate(0 -116.59779796471412 0.3883018122821227)"><path d="M0 0 C-38.87 0.13, -194.33 0.65, -233.2 0.78 M0 0 C-38.87 0.13, -194.33 0.65, -233.2 0.78" stroke="#000000" stroke-width="1" fill="none"></path></g><g transform="translate(861.4734901745805 727.568993034843) rotate(0 -116.59779796471412 0.3883018122821227)"><path d="M-205.04 -9.58 C-212.88 -6.69, -220.73 -3.81, -233.2 0.78 M-205.04 -9.58 C-214.68 -6.03, -224.33 -2.48, -233.2 0.78" stroke="#000000" stroke-width="1" fill="none"></path></g><g transform="translate(861.4734901745805 727.568993034843) rotate(0 -116.59779796471412 0.3883018122821227)"><path d="M-204.97 10.94 C-212.83 8.11, -220.7 5.28, -233.2 0.78 M-204.97 10.94 C-214.64 7.46, -224.31 3.98, -233.2 0.78" stroke="#000000" stroke-width="1" fill="none"></path></g></g><g transform="translate(678.4561564946198 704.5386517015413) rotate(0 67 10)"><text x="0" y="14" font-family="Virgil, Segoe UI Emoji" font-size="16.062940597425445px" fill="#000000" text-anchor="start" style="white-space: pre;" direction="ltr">Send Client Type</text></g><g stroke-linecap="round"><g transform="translate(628.32542337417 812.1074107923733) rotate(0 113.12759067813795 0)"><path d="M0 0 C37.71 0, 188.55 0, 226.26 0 M0 0 C37.71 0, 188.55 0, 226.26 0" stroke="#000000" stroke-width="1" fill="none"></path></g><g transform="translate(628.32542337417 812.1074107923733) rotate(0 113.12759067813795 0)"><path d="M198.06 10.26 C204.03 8.09, 210 5.92, 226.26 0 M198.06 10.26 C208.48 6.47, 218.9 2.68, 226.26 0" stroke="#000000" stroke-width="1" fill="none"></path></g><g transform="translate(628.32542337417 812.1074107923733) rotate(0 113.12759067813795 0)"><path d="M198.06 -10.26 C204.03 -8.09, 210 -5.92, 226.26 0 M198.06 -10.26 C208.48 -6.47, 218.9 -2.68, 226.26 0" stroke="#000000" stroke-width="1" fill="none"></path></g></g><g transform="translate(644.992900317422 783.9873181605913) rotate(0 81.5 30)"><text x="0" y="14" font-family="Virgil, Segoe UI Emoji" font-size="16.062940597425445px" fill="#000000" text-anchor="start" style="white-space: pre;" direction="ltr">Receive Instance Of</text><text x="0" y="34" font-family="Virgil, Segoe UI Emoji" font-size="16.062940597425445px" fill="#000000" text-anchor="start" style="white-space: pre;" direction="ltr"></text><text x="0" y="54" font-family="Virgil, Segoe UI Emoji" font-size="16.062940597425445px" fill="#000000" text-anchor="start" style="white-space: pre;" direction="ltr">IFeeCalculator</text></g><g transform="translate(105.1468498766908 870.2793586081747) rotate(0 250.5 12.5)"><text x="0" y="18" font-family="Virgil, Segoe UI Emoji" font-size="20px" fill="#000000" text-anchor="start" style="white-space: pre;" direction="ltr">IFeeCalculator GetCalculatorInstance(ClientType)</text></g><g stroke-linecap="round" transform="translate(282.1468498766908 701.9465537469222) rotate(0 73.5 62)"><path d="M74 0 C90.02 13.82, 106.03 27.64, 147 63 M74 0 C90.06 13.86, 106.13 27.73, 147 63 M147 63 C121.16 84.6, 95.31 106.19, 74 124 M147 63 C127.73 79.1, 108.45 95.21, 74 124 M74 124 C49.61 103.9, 25.22 83.79, 0 63 M74 124 C48.7 103.15, 23.41 82.3, 0 63 M0 63 C28.66 38.6, 57.33 14.19, 74 0 M0 63 C25.15 41.59, 50.3 20.17, 74 0" stroke="#000000" stroke-width="1" fill="none"></path></g><g transform="translate(317.6468498766908 738.9465537469222) rotate(0 38 25)"><text x="38" y="18" font-family="Virgil, Segoe UI Emoji" font-size="20px" fill="#000000" text-anchor="middle" style="white-space: pre;" direction="ltr">Is </text><text x="38" y="43" font-family="Virgil, Segoe UI Emoji" font-size="20px" fill="#000000" text-anchor="middle" style="white-space: pre;" direction="ltr">Premium</text></g><g stroke-linecap="round"><g transform="translate(429.0066462039367 760.8840365290466) rotate(0 95.97600040604175 -139.1767646989523)"><path d="M0 0 C24.65 -13.93, 115.9 -37.16, 147.89 -83.55 C179.89 -129.95, 184.61 -245.89, 191.95 -278.35 M0 0 C24.65 -13.93, 115.9 -37.16, 147.89 -83.55 C179.89 -129.95, 184.61 -245.89, 191.95 -278.35" stroke="#000000" stroke-width="1" fill="none"></path></g><g transform="translate(429.0066462039367 760.8840365290466) rotate(0 95.97600040604175 -139.1767646989523)"><path d="M198.18 -249.01 C196.86 -255.23, 195.54 -261.46, 191.95 -278.35 M198.18 -249.01 C196.11 -258.77, 194.04 -268.53, 191.95 -278.35" stroke="#000000" stroke-width="1" fill="none"></path></g><g transform="translate(429.0066462039367 760.8840365290466) rotate(0 95.97600040604175 -139.1767646989523)"><path d="M177.86 -251.87 C180.85 -257.49, 183.84 -263.1, 191.95 -278.35 M177.86 -251.87 C182.55 -260.68, 187.24 -269.49, 191.95 -278.35" stroke="#000000" stroke-width="1" fill="none"></path></g></g><g transform="translate(451.20534195284563 719.1868082292152) rotate(338.0235946536889 17 12.5)"><text x="0" y="18" font-family="Virgil, Segoe UI Emoji" font-size="20px" fill="#000000" text-anchor="start" style="white-space: pre;" direction="ltr">Yes</text></g><g stroke-linecap="round"><g transform="translate(284.4858555145429 760.9402406126958) rotate(0 -73.21779924166412 -136.43782568754932)"><path d="M0 0 C-16.83 -14.34, -76.55 -40.55, -100.96 -86.03 C-125.36 -131.51, -138.86 -241.74, -146.44 -272.88 M0 0 C-16.83 -14.34, -76.55 -40.55, -100.96 -86.03 C-125.36 -131.51, -138.86 -241.74, -146.44 -272.88" stroke="#000000" stroke-width="1" fill="none"></path></g><g transform="translate(284.4858555145429 760.9402406126958) rotate(0 -73.21779924166412 -136.43782568754932)"><path d="M-131.14 -247.07 C-135.6 -254.6, -140.07 -262.13, -146.44 -272.88 M-131.14 -247.07 C-134.89 -253.39, -138.64 -259.71, -146.44 -272.88" stroke="#000000" stroke-width="1" fill="none"></path></g><g transform="translate(284.4858555145429 760.9402406126958) rotate(0 -73.21779924166412 -136.43782568754932)"><path d="M-151.31 -243.27 C-149.89 -251.91, -148.47 -260.55, -146.44 -272.88 M-151.31 -243.27 C-150.12 -250.53, -148.92 -257.78, -146.44 -272.88" stroke="#000000" stroke-width="1" fill="none"></path></g></g><g transform="translate(247.27984279410612 716.3259310220853) rotate(31.802627981562622 13 12.5)"><text x="0" y="18" font-family="Virgil, Segoe UI Emoji" font-size="20px" fill="#000000" text-anchor="start" style="white-space: pre;" direction="ltr">No</text></g></svg>